<?xml version="1.0" encoding="utf-8"?>
<!-- Generator: Adobe Illustrator 16.0.0, SVG Export Plug-In . SVG Version: 6.00 Build 0)  -->
<!DOCTYPE svg PUBLIC "-//W3C//DTD SVG 1.1//EN" "http://www.w3.org/Graphics/SVG/1.1/DTD/svg11.dtd">
<svg version="1.1" id="Layer_1" xmlns="http://www.w3.org/2000/svg" xmlns:xlink="http://www.w3.org/1999/xlink" x="0px" y="0px"
	 width="100px" height="585px" viewBox="0 0 75 428.667" enable-background="new 0 0 75 428.667" xml:space="preserve">
<g>
	<rect id="rect4307-2-4-8-7_3_" x="26.279" y="159.247" fill="#FFFFFF" width="22.512" height="1"/>
	<rect id="rect4307-2-4-8-7_1_" x="26.279" y="181.14" fill="#FFFFFF" width="22.512" height="1"/>
	<rect id="rect4307-2-4-8-7_2_" x="26.279" y="203.077" fill="#FFFFFF" width="22.512" height="1"/>
	<polygon fill="#FFFFFF" points="59.035,169.918 16.035,169.918 15.035,169.918 15.035,170.918 15.035,173.741 16.035,173.741 
		16.035,170.918 59.035,170.918 59.035,173.741 60.035,173.741 60.035,170.918 60.035,169.918 	"/>
	<polygon fill="#FFFFFF" points="59.035,191.765 16.035,191.765 15.035,191.765 15.035,192.765 15.035,195.588 16.035,195.588 
		16.035,192.765 59.035,192.765 59.035,195.588 60.035,195.588 60.035,192.765 60.035,191.765 	"/>
	<rect id="rect4307-2-4-8-7_6_" x="26.279" y="268.557" fill="#FFFFFF" width="22.512" height="1"/>
	<rect id="rect4307-2-4-8-7_5_" x="26.279" y="246.651" fill="#FFFFFF" width="22.512" height="1"/>
	<rect id="rect4307-2-4-8-7_4_" x="26.279" y="224.712" fill="#FFFFFF" width="22.512" height="1"/>
	<rect id="rect4307-2-4-8-7_7_" x="31.362" y="220.932" fill="#FFFFFF" width="2.251" height="1"/>
	<rect id="rect4307-2-4-8-7_8_" x="34.41" y="220.932" fill="#FFFFFF" width="2.25" height="1"/>
	<rect id="rect4307-2-4-8-7_9_" x="37.393" y="220.932" fill="#FFFFFF" width="2.251" height="1"/>
	<rect id="rect4307-2-4-8-7_10_" x="40.377" y="220.932" fill="#FFFFFF" width="2.252" height="1"/>
	<rect id="rect4307-2-4-8-7_14_" x="31.362" y="206.64" fill="#FFFFFF" width="2.251" height="1"/>
	<rect id="rect4307-2-4-8-7_13_" x="34.41" y="206.64" fill="#FFFFFF" width="2.25" height="1"/>
	<rect id="rect4307-2-4-8-7_12_" x="37.393" y="206.64" fill="#FFFFFF" width="2.251" height="1"/>
	<rect id="rect4307-2-4-8-7_11_" x="40.377" y="206.64" fill="#FFFFFF" width="2.252" height="1"/>
	<polygon fill="#FFFFFF" points="16.035,258.337 59.035,258.337 60.035,258.337 60.035,257.337 60.035,254.514 59.035,254.514 
		59.035,257.337 16.035,257.337 16.035,254.514 15.035,254.514 15.035,257.337 15.035,258.337 	"/>
	<polygon fill="#FFFFFF" points="16.035,236.462 59.035,236.462 60.035,236.462 60.035,235.462 60.035,232.639 59.035,232.639 
		59.035,235.462 16.035,235.462 16.035,232.639 15.035,232.639 15.035,235.462 15.035,236.462 	"/>
	<text transform="matrix(1 0 0 1 3.7759 173.8179)" fill="#FFFFFF" font-family="'MyriadPro-Regular'" font-size="9">20</text>
	<text transform="matrix(1 0 0 1 3.9019 195.6089)" fill="#FFFFFF" font-family="'MyriadPro-Regular'" font-size="9">10</text>
	<text transform="matrix(1 0 0 1 61.5547 195.2017)" fill="#FFFFFF" font-family="'MyriadPro-Regular'" font-size="9">10</text>
	<text transform="matrix(1 0 0 1 61.2559 238.9819)" fill="#FFFFFF" font-family="'MyriadPro-Regular'" font-size="9">10</text>
	<text transform="matrix(1 0 0 1 4.1621 238.1714)" fill="#FFFFFF" font-family="'MyriadPro-Regular'" font-size="8.6076">10</text>
	<text transform="matrix(1 0 0 1 3.6411 260.4624)" fill="#FFFFFF" font-family="'MyriadPro-Regular'" font-size="9">20</text>
	<text transform="matrix(1 0 0 1 62.3965 260.5874)" fill="#FFFFFF" font-family="'MyriadPro-Regular'" font-size="9">20</text>
	<text transform="matrix(1 0 0 1 62.0566 173.8179)" fill="#FFFFFF" font-family="'MyriadPro-Regular'" font-size="9">20</text>
	<rect id="rect4307-2-4-8-7_15_" x="26.279" y="137.414" fill="#FFFFFF" width="22.512" height="1"/>
	<polygon fill="#FFFFFF" points="59.035,126.247 16.035,126.247 15.035,126.247 15.035,127.247 15.035,130.07 16.035,130.07 
		16.035,127.247 59.035,127.247 59.035,130.07 60.035,130.07 60.035,127.247 60.035,126.247 	"/>
	<text transform="matrix(1 0 0 1 3.7241 129.8442)" fill="#FFFFFF" font-family="'MyriadPro-Regular'" font-size="9">40</text>
	<text transform="matrix(1 0 0 1 62.2559 129.9175)" fill="#FFFFFF" font-family="'MyriadPro-Regular'" font-size="9">40</text>
	<rect id="rect4307-2-4-8-7_16_" x="26.279" y="115.603" fill="#FFFFFF" width="22.512" height="1"/>
	<polygon fill="#FFFFFF" points="59.035,104.418 16.035,104.418 15.035,104.418 15.035,105.418 15.035,108.241 16.035,108.241 
		16.035,105.418 59.035,105.418 59.035,108.241 60.035,108.241 60.035,105.418 60.035,104.418 	"/>
	<text transform="matrix(1 0 0 1 3.6411 107.9692)" fill="#FFFFFF" font-family="'MyriadPro-Regular'" font-size="9">50</text>
	<text transform="matrix(1 0 0 1 62.0566 108.0415)" fill="#FFFFFF" font-family="'MyriadPro-Regular'" font-size="9">50</text>
	<rect id="rect4307-2-4-8-7_17_" x="26.279" y="93.041" fill="#FFFFFF" width="22.512" height="1"/>
	<polygon fill="#FFFFFF" points="59.035,82.372 16.035,82.372 15.035,82.372 15.035,83.372 15.035,86.195 16.035,86.195 
		16.035,83.372 59.035,83.372 59.035,86.195 60.035,86.195 60.035,83.372 60.035,82.372 	"/>
	<text transform="matrix(1 0 0 1 3.6304 85.4902)" fill="#FFFFFF" font-family="'MyriadPro-Regular'" font-size="9">60</text>
	<text transform="matrix(1 0 0 1 62.0254 85.5005)" fill="#FFFFFF" font-family="'MyriadPro-Regular'" font-size="9">60</text>
	<rect id="rect4307-2-4-8-7_18_" x="26.279" y="71.205" fill="#FFFFFF" width="22.512" height="1"/>
	<polygon fill="#FFFFFF" points="59.035,59.853 16.035,59.853 15.035,59.853 15.035,60.853 15.035,63.676 16.035,63.676 
		16.035,60.853 59.035,60.853 59.035,63.676 60.035,63.676 60.035,60.853 60.035,59.853 	"/>
	<text transform="matrix(1 0 0 1 3.6304 63.4272)" fill="#FFFFFF" font-family="'MyriadPro-Regular'" font-size="9">70</text>
	<text transform="matrix(1 0 0 1 62.0254 63.4272)" fill="#FFFFFF" font-family="'MyriadPro-Regular'" font-size="9">70</text>
	<rect id="rect4307-2-4-8-7_19_" x="26.279" y="49.185" fill="#FFFFFF" width="22.512" height="1"/>
	<polygon fill="#FFFFFF" points="59.035,38.018 16.035,38.018 15.035,38.018 15.035,39.018 15.035,41.841 16.035,41.841 
		16.035,39.018 59.035,39.018 59.035,41.841 60.035,41.841 60.035,39.018 60.035,38.018 	"/>
	<text transform="matrix(1 0 0 1 3.4849 41.5728)" fill="#FFFFFF" font-family="'MyriadPro-Regular'" font-size="9">80</text>
	<text transform="matrix(1 0 0 1 62.0254 41.7085)" fill="#FFFFFF" font-family="'MyriadPro-Regular'" font-size="9">80</text>
	<rect id="rect4307-2-4-8-7_20_" x="26.279" y="27.397" fill="#FFFFFF" width="22.512" height="1"/>
	<polygon fill="#FFFFFF" points="59.035,16.189 16.035,16.189 15.035,16.189 15.035,17.189 15.035,20.012 16.035,20.012 
		16.035,17.189 59.035,17.189 59.035,20.012 60.035,20.012 60.035,17.189 60.035,16.189 	"/>
	<text transform="matrix(1 0 0 1 3.6411 20.0835)" fill="#FFFFFF" font-family="'MyriadPro-Regular'" font-size="9">90</text>
	<text transform="matrix(1 0 0 1 62.0254 19.7915)" fill="#FFFFFF" font-family="'MyriadPro-Regular'" font-size="9">90</text>
	<polygon fill="#FFFFFF" points="59.035,148.103 16.035,148.103 15.035,148.103 15.035,149.103 15.035,151.926 16.035,151.926 
		16.035,149.103 59.035,149.103 59.035,151.926 60.035,151.926 60.035,149.103 60.035,148.103 	"/>
	<text transform="matrix(1 0 0 1 3.6411 151.9067)" fill="#FFFFFF" font-family="'MyriadPro-Regular'" font-size="9">30</text>
	<text transform="matrix(1 0 0 1 62.0566 151.9429)" fill="#FFFFFF" font-family="'MyriadPro-Regular'" font-size="9">30</text>
	<rect id="rect4307-2-4-8-7_28_" x="24.677" y="290.349" fill="#FFFFFF" width="22.51" height="1"/>
	<polygon fill="#FFFFFF" points="16.034,302.039 59.033,302.039 60.033,302.039 60.033,301.039 60.033,298.216 59.033,298.216 
		59.033,301.039 16.034,301.039 16.034,298.216 15.034,298.216 15.034,301.039 15.034,302.039 	"/>
	<text transform="matrix(1 0 0 1 3.7241 392.4839)" fill="#FFFFFF" font-family="'MyriadPro-Regular'" font-size="9">80</text>
	<text transform="matrix(1 0 0 1 62.0254 392.771)" fill="#FFFFFF" font-family="'MyriadPro-Regular'" font-size="9">80</text>
	<rect id="rect4307-2-4-8-7_27_" x="24.677" y="312.241" fill="#FFFFFF" width="22.51" height="1"/>
	<polygon fill="#FFFFFF" points="16.034,324.731 59.033,324.731 60.033,324.731 60.033,323.731 60.033,320.908 59.033,320.908 
		59.033,323.731 16.034,323.731 16.034,320.908 15.034,320.908 15.034,323.731 15.034,324.731 	"/>
	<text transform="matrix(1 0 0 1 3.7759 370.7339)" fill="#FFFFFF" font-family="'MyriadPro-Regular'" font-size="9">70</text>
	<text transform="matrix(1 0 0 1 61.8809 370.8589)" fill="#FFFFFF" font-family="'MyriadPro-Regular'" font-size="9">70</text>
	<rect id="rect4307-2-4-8-7_26_" x="24.677" y="334.875" fill="#FFFFFF" width="22.51" height="1"/>
	<polygon fill="#FFFFFF" points="16.034,346.545 59.033,346.545 60.033,346.545 60.033,345.545 60.033,342.723 59.033,342.723 
		59.033,345.545 16.034,345.545 16.034,342.723 15.034,342.723 15.034,345.545 15.034,346.545 	"/>
	<text transform="matrix(1 0 0 1 3.6411 348.8433)" fill="#FFFFFF" font-family="'MyriadPro-Regular'" font-size="9">60</text>
	<text transform="matrix(1 0 0 1 62.2559 348.6763)" fill="#FFFFFF" font-family="'MyriadPro-Regular'" font-size="9">60</text>
	<rect id="rect4307-2-4-8-7_25_" x="24.677" y="356.731" fill="#FFFFFF" width="22.51" height="1"/>
	<polygon fill="#FFFFFF" points="16.034,368.51 59.033,368.51 60.033,368.51 60.033,367.51 60.033,364.687 59.033,364.687 
		59.033,367.51 16.034,367.51 16.034,364.687 15.034,364.687 15.034,367.51 15.034,368.51 	"/>
	<text transform="matrix(1 0 0 1 3.7759 326.9058)" fill="#FFFFFF" font-family="'MyriadPro-Regular'" font-size="9">50</text>
	<text transform="matrix(1 0 0 1 62.0254 326.9058)" fill="#FFFFFF" font-family="'MyriadPro-Regular'" font-size="9">50</text>
	<rect id="rect4307-2-4-8-7_24_" x="24.677" y="378.694" fill="#FFFFFF" width="22.51" height="1"/>
	<polygon fill="#FFFFFF" points="16.034,390.323 59.033,390.323 60.033,390.323 60.033,389.323 60.033,386.5 59.033,386.5 
		59.033,389.323 16.034,389.323 16.034,386.5 15.034,386.5 15.034,389.323 15.034,390.323 	"/>
	<text transform="matrix(1 0 0 1 3.7241 304.271)" fill="#FFFFFF" font-family="'MyriadPro-Regular'" font-size="9">40</text>
	<text transform="matrix(1 0 0 1 62.2559 304.1714)" fill="#FFFFFF" font-family="'MyriadPro-Regular'" font-size="9">40</text>
	<rect id="rect4307-2-4-8-7_23_" x="24.677" y="400.522" fill="#FFFFFF" width="22.51" height="1"/>
	<polygon fill="#FFFFFF" points="16.034,412.151 59.033,412.151 60.033,412.151 60.033,411.151 60.033,408.327 59.033,408.327 
		59.033,411.151 16.034,411.151 16.034,408.327 15.034,408.327 15.034,411.151 15.034,412.151 	"/>
	<text transform="matrix(1 0 0 1 62.0254 282.3325)" fill="#FFFFFF" font-family="'MyriadPro-Regular'" font-size="9">30</text>
	<text transform="matrix(1 0 0 1 3.7759 282.3325)" fill="#FFFFFF" font-family="'MyriadPro-Regular'" font-size="9">30</text>
	<polygon fill="#FFFFFF" points="16.021,280.167 59.021,280.167 60.021,280.167 60.021,279.167 60.021,276.343 59.021,276.343 
		59.021,279.167 16.021,279.167 16.021,276.343 15.021,276.343 15.021,279.167 15.021,280.167 	"/>
	<text transform="matrix(1 0 0 1 3.7241 414.3276)" fill="#FFFFFF" font-family="'MyriadPro-Regular'" font-size="9">90</text>
	<text transform="matrix(1 0 0 1 62.0254 414.3276)" fill="#FFFFFF" font-family="'MyriadPro-Regular'" font-size="9">90</text>
</g>
</svg>
